<svg xmlns="http://www.w3.org/2000/svg" width="64.546" height="118" viewBox="0 0 64.546 118">
  <g id="Group_21" data-name="Group 21" transform="translate(0 -0.241)" opacity="0.06">
    <path id="Path_11" data-name="Path 11" d="M115.921,7.34V62.371c-.324-.311-.932-.924-1.272-1.253q-10.341-10.3-20.617-20.651A9.2,9.2,0,0,1,92.9,29.723a13.7,13.7,0,0,1,2.713-3.491q9.81-9.158,19.643-18.316C115.389,7.808,115.559,7.644,115.921,7.34Z" transform="translate(-59.584 -7.099)" fill="#03964a"/>
    <path id="Path_14" data-name="Path 14" d="M66.045,111.83H11.47c6.636-7.342,12.96-14.363,19.319-21.36a10.956,10.956,0,0,1,4.731-3.237,6.351,6.351,0,0,1,7.327,1.614c6.905,7.188,14.062,14.13,21.14,21.158" transform="translate(-11.47 -54.713)" fill="#03964a"/>
    <path id="Path_15" data-name="Path 15" d="M116.222,222.4c-5.513-5.144-10.773-10.048-16.027-14.959a54.563,54.563,0,0,1-5.011-4.8,11.683,11.683,0,0,1-2.721-5.233,6.594,6.594,0,0,1,1.792-6.518c6.772-6.6,13.418-13.327,20.114-20,.523-.523,1.1-1.013,1.858-1.709Z" transform="translate(-59.938 -104.156)" fill="#03964a"/>
    <path id="Path_16" data-name="Path 16" d="M13.33,163.86H66.793c-.523.568-.84.937-1.17,1.264q-9.943,10-19.886,19.983a8.112,8.112,0,0,1-9.723,1.724,16.145,16.145,0,0,1-5.061-3.807q-8.533-9.2-17.008-18.45C13.83,164.451,13.654,164.247,13.33,163.86Z" transform="translate(-12.584 -100.966)" fill="#03964a"/>
    <path id="Path_18" data-name="Path 18" d="M146.2,148.553a5.142,5.142,0,0,1,5.448-5.207,5.233,5.233,0,0,1,5.168,5.327,5.314,5.314,0,1,1-10.616-.12Z" transform="translate(-92.27 -88.665)" fill="#ea3739"/>
  </g>
</svg>
