<svg xmlns="http://www.w3.org/2000/svg" width="187.922" height="45.722" viewBox="0 0 187.922 45.722">
  <g id="SEN-FIN-ASSET" transform="translate(-11.47 -4.44)">
    <g id="Group_7" data-name="Group 7" transform="translate(11.47 4.803)">
      <path id="Path_10" data-name="Path 10" d="M192.617,95.359H171.5c.2-.2.428-.442.607-.621,2.884-2.888,5.78-5.763,8.657-8.656a2,2,0,0,1,2-.39,4.913,4.913,0,0,1,2.669,1.741C187.792,90.036,190.151,92.641,192.617,95.359Z" transform="translate(-147.019 -73.546)" fill="#03964a"/>
      <path id="Path_11" data-name="Path 11" d="M100.938,7.34V28.371c-.124-.119-.356-.353-.486-.479Q96.5,23.955,92.573,20a3.516,3.516,0,0,1-.434-4.106,5.235,5.235,0,0,1,1.037-1.334q3.749-3.5,7.507-7C100.735,7.519,100.8,7.456,100.938,7.34Z" transform="translate(-79.408 -7.259)" fill="#03964a"/>
      <path id="Path_12" data-name="Path 12" d="M166.75,6.81c2.669,2.486,5.24,4.851,7.773,7.256a4,4,0,0,1,1.371,4.111,2.46,2.46,0,0,1-.6,1.16q-4.133,4.114-8.262,8.23c-.063.061-.136.112-.277.225Z" transform="translate(-142.996 -6.81)" fill="#03964a"/>
      <path id="Path_13" data-name="Path 13" d="M171.8,164.02h20.759c-.21.254-.353.444-.512.617q-3.068,3.341-6.142,6.679a6.839,6.839,0,0,1-2.064,1.646,3.128,3.128,0,0,1-3.769-.65C177.344,169.579,174.619,166.847,171.8,164.02Z" transform="translate(-147.273 -139.97)" fill="#03964a"/>
      <path id="Path_14" data-name="Path 14" d="M32.327,96.3l-20.857,0c2.536-2.806,4.953-5.489,7.383-8.163A4.187,4.187,0,0,1,20.661,86.9a2.427,2.427,0,0,1,2.8.617c2.639,2.747,5.374,5.4,8.079,8.086" transform="translate(-11.47 -74.483)" fill="#03964a"/>
      <path id="Path_15" data-name="Path 15" d="M101.395,189.518c-2.107-1.966-4.117-3.84-6.125-5.717a20.854,20.854,0,0,1-1.915-1.834,4.465,4.465,0,0,1-1.04-2A2.52,2.52,0,0,1,93,177.476c2.588-2.521,5.128-5.093,7.687-7.643.2-.2.419-.387.71-.653Z" transform="translate(-79.885 -144.341)" fill="#03964a"/>
      <path id="Path_16" data-name="Path 16" d="M13.33,163.86H33.762c-.2.217-.321.358-.447.483q-3.8,3.823-7.6,7.637a3.1,3.1,0,0,1-3.716.659,6.17,6.17,0,0,1-1.934-1.455q-3.261-3.515-6.5-7.051C13.521,164.086,13.454,164.008,13.33,163.86Z" transform="translate(-13.045 -139.835)" fill="#03964a"/>
      <path id="Path_17" data-name="Path 17" d="M166.6,189.517V169.01c1.475,1.45,2.871,2.812,4.256,4.189s2.729,2.838,4.178,4.164a2.562,2.562,0,0,1,.659,2.812,3.58,3.58,0,0,1-.952,1.64C172.158,184.439,169.377,186.852,166.6,189.517Z" transform="translate(-142.868 -144.197)" fill="#03964a"/>
      <path id="Path_18" data-name="Path 18" d="M146.19,145.33a1.965,1.965,0,0,1,2.082-1.99,2,2,0,0,1,1.975,2.036,2.031,2.031,0,1,1-4.057-.046Z" transform="translate(-125.581 -122.454)" fill="#ea3739"/>
    </g>
    <rect id="Rectangle_4" data-name="Rectangle 4" width="136.327" height="9.999" transform="translate(63.065 40.164)" fill="#049649"/>
    <circle id="Ellipse_1" data-name="Ellipse 1" cx="1.972" cy="1.972" r="1.972" transform="translate(170.753 6.274)" fill="#ea3839"/>
    <rect id="Rectangle_5" data-name="Rectangle 5" width="2.292" height="21.457" transform="translate(171.521 16.074)" fill="#65665d"/>
    <g id="Group_8" data-name="Group 8" transform="translate(63.21 4.44)">
      <path id="Path_19" data-name="Path 19" d="M349.69,31.763l4.159-3.829q.8.851,1.891,1.843a10.282,10.282,0,0,0,2.6,1.7,8.155,8.155,0,0,0,3.5.708,5.76,5.76,0,0,0,4.137-1.3,4.105,4.105,0,0,0,1.348-3.049,3.63,3.63,0,0,0-1.654-3.167,16.751,16.751,0,0,0-5.908-1.938,11.736,11.736,0,0,1-4.75-1.938,8.776,8.776,0,0,1-2.789-3.286,9.089,9.089,0,0,1-.922-3.994,8.68,8.68,0,0,1,1.205-4.467,8.821,8.821,0,0,1,3.639-3.332,13.109,13.109,0,0,1,6.122-1.276,15.051,15.051,0,0,1,4.3.545,11.824,11.824,0,0,1,3,1.323,9.475,9.475,0,0,1,1.868,1.513q.661.734.945,1.063l-3.924,3.687q-.285-.285-1.111-.993a8.979,8.979,0,0,0-2.128-1.3,7.576,7.576,0,0,0-3.144-.59,4.875,4.875,0,0,0-3.616,1.183,3.43,3.43,0,0,0-1.158,2.364,3.317,3.317,0,0,0,1.348,2.718,13.588,13.588,0,0,0,5.223,1.868,17.18,17.18,0,0,1,4.609,1.678,9.336,9.336,0,0,1,3.474,3.214,9.588,9.588,0,0,1,1.323,5.27,8.713,8.713,0,0,1-1.466,4.94,10.15,10.15,0,0,1-4.042,3.474,12.982,12.982,0,0,1-5.838,1.276,14.669,14.669,0,0,1-9.572-3.284A19.128,19.128,0,0,1,349.69,31.763Z" transform="translate(-349.69 -4.44)" fill="#65665d"/>
      <path id="Path_20" data-name="Path 20" d="M555.249,82.568l3.026,3.4-.78.78a9.952,9.952,0,0,1-1.843,1.371A12.792,12.792,0,0,1,552.58,89.4a16.109,16.109,0,0,1-4.467.543,11.991,11.991,0,0,1-6.168-1.536,10.682,10.682,0,0,1-4.089-4.277,13.123,13.123,0,0,1-1.466-6.287,12.019,12.019,0,0,1,1.441-5.885,11.684,11.684,0,0,1,14.961-4.608,9.281,9.281,0,0,1,3.356,2.907,12.2,12.2,0,0,1,1.843,4.089,19.045,19.045,0,0,1,.568,4.632v.8H542.014a4.5,4.5,0,0,0,.922,2.813,6.39,6.39,0,0,0,2.341,1.891,6.555,6.555,0,0,0,2.884.685,11,11,0,0,0,3.592-.5,8.976,8.976,0,0,0,2.269-1.111A10.875,10.875,0,0,0,555.249,82.568ZM541.966,75.76h10.872a4.752,4.752,0,0,0-.59-2.246,4.953,4.953,0,0,0-1.726-1.843,5.225,5.225,0,0,0-2.884-.733,6.051,6.051,0,0,0-3.1.733,5.259,5.259,0,0,0-1.914,1.843A4.341,4.341,0,0,0,541.966,75.76Z" transform="translate(-507.829 -56.803)" fill="#65665d"/>
      <path id="Path_21" data-name="Path 21" d="M714.41,95.752V73.581h5.342l.142,2.506a11.8,11.8,0,0,1,2.458-1.961,7.768,7.768,0,0,1,4.207-1.016,7.988,7.988,0,0,1,6.31,2.481,9.721,9.721,0,0,1,2.2,6.688V95.751h-5.578V82.325a4.465,4.465,0,0,0-1.158-3.261,4.018,4.018,0,0,0-3-1.181,4.9,4.9,0,0,0-3.829,1.7,6.033,6.033,0,0,0-1.513,4.159V95.751H714.41Z" transform="translate(-658.616 -62.605)" fill="#65665d"/>
      <path id="Path_22" data-name="Path 22" d="M896.32,47.54V16.01h18.908v2.126H898.59V30.049h13v2.128h-13V47.539h-2.27Z" transform="translate(-812.698 -14.24)" fill="#65665d"/>
      <path id="Path_23" data-name="Path 23" d="M1116.385,97.59V77.737q0-.851-.095-1.891h1.986q.094,1.039.118,1.868c.015.552.023,1.441.023,2.671a11.314,11.314,0,0,1,1.56-2.174,9.2,9.2,0,0,1,2.741-2.056,9.025,9.025,0,0,1,4.16-.875q4.633,0,6.476,2.576a11.77,11.77,0,0,1,1.843,6.973V97.592h-2.128V85.539a13.469,13.469,0,0,0-.756-5.057,4.653,4.653,0,0,0-2.2-2.506,7.93,7.93,0,0,0-3.521-.71,7.094,7.094,0,0,0-4.537,1.418,8.65,8.65,0,0,0-2.671,3.522,10.834,10.834,0,0,0-.875,4.184v11.2h-2.125Z" transform="translate(-999.017 -64.443)" fill="#65665d"/>
    </g>
    <g id="Group_9" data-name="Group 9" transform="translate(65.194 41.233)">
      <path id="Path_24" data-name="Path 24" d="M362.66,253.709l2.781-7.449h1.865l2.725,7.449h-1.842L367.62,252H365l-.569,1.709Zm2.725-3.015h1.831l-.9-2.815Z" transform="translate(-362.66 -246.06)" fill="#fff"/>
      <path id="Path_25" data-name="Path 25" d="M421.27,251.549l1.083-1.173a3.856,3.856,0,0,0,.776.615,2.113,2.113,0,0,0,1.134.3,1.4,1.4,0,0,0,.5-.095,1,1,0,0,0,.407-.28.648.648,0,0,0,.162-.441.72.72,0,0,0-.4-.647,5.04,5.04,0,0,0-1.273-.447,3.042,3.042,0,0,1-1.407-.748,1.836,1.836,0,0,1-.558-1.384,2.24,2.24,0,0,1,.3-1.144,2.208,2.208,0,0,1,.9-.838,3.23,3.23,0,0,1,1.519-.318,3.656,3.656,0,0,1,1.279.2,3.379,3.379,0,0,1,.832.43,2.9,2.9,0,0,1,.436.379l-.971,1.072a6.752,6.752,0,0,0-.647-.43,1.812,1.812,0,0,0-.95-.24,1.162,1.162,0,0,0-.664.207.594.594,0,0,0-.307.5.7.7,0,0,0,.4.613,3.964,3.964,0,0,0,1.106.392,4.588,4.588,0,0,1,1.056.4,2.273,2.273,0,0,1,.832.748,2.2,2.2,0,0,1,.324,1.251,1.992,1.992,0,0,1-.379,1.195,2.563,2.563,0,0,1-1.028.826,3.409,3.409,0,0,1-1.452.3,4.358,4.358,0,0,1-1.306-.179,3.853,3.853,0,0,1-.994-.464A4.092,4.092,0,0,1,421.27,251.549Z" transform="translate(-412.304 -244.95)" fill="#fff"/>
      <path id="Path_26" data-name="Path 26" d="M473.03,251.549l1.083-1.173a3.854,3.854,0,0,0,.776.615,2.113,2.113,0,0,0,1.134.3,1.4,1.4,0,0,0,.5-.095,1,1,0,0,0,.407-.28.648.648,0,0,0,.162-.441.72.72,0,0,0-.4-.647,5.039,5.039,0,0,0-1.273-.447,3.042,3.042,0,0,1-1.407-.748,1.836,1.836,0,0,1-.558-1.384,2.24,2.24,0,0,1,.3-1.144,2.208,2.208,0,0,1,.9-.838,3.23,3.23,0,0,1,1.519-.318,3.656,3.656,0,0,1,1.279.2,3.379,3.379,0,0,1,.832.43,2.9,2.9,0,0,1,.436.379l-.971,1.072a6.748,6.748,0,0,0-.647-.43,1.811,1.811,0,0,0-.95-.24,1.162,1.162,0,0,0-.664.207.593.593,0,0,0-.307.5.7.7,0,0,0,.4.613,3.964,3.964,0,0,0,1.106.392,4.588,4.588,0,0,1,1.056.4,2.273,2.273,0,0,1,.832.748,2.2,2.2,0,0,1,.324,1.251,1.992,1.992,0,0,1-.379,1.195,2.563,2.563,0,0,1-1.028.826,3.409,3.409,0,0,1-1.452.3,4.358,4.358,0,0,1-1.306-.179,3.852,3.852,0,0,1-.994-.464A3.982,3.982,0,0,1,473.03,251.549Z" transform="translate(-456.146 -244.95)" fill="#fff"/>
      <path id="Path_27" data-name="Path 27" d="M528.22,253.709V246.26h5.093v1.475h-3.407v1.452h2.646v1.429h-2.646v1.608h3.652v1.485Z" transform="translate(-502.893 -246.06)" fill="#fff"/>
      <path id="Path_28" data-name="Path 28" d="M578.372,253.709v-5.963H575.96V246.26h6.511v1.485h-2.4v5.963Z" transform="translate(-543.33 -246.06)" fill="#fff"/>
      <path id="Path_29" data-name="Path 29" d="M654.43,253.709l.346-7.449h1.6l1.943,3.5,1.9-3.5h1.608l.346,7.449h-1.684l-.213-4.869-1.54,2.9h-.87l-1.631-2.87-.19,4.836Z" transform="translate(-609.796 -246.06)" fill="#fff"/>
      <path id="Path_30" data-name="Path 30" d="M718.09,253.709l2.781-7.449h1.865l2.725,7.449h-1.842L723.05,252h-2.625l-.569,1.709Zm2.725-3.015h1.831l-.9-2.815Z" transform="translate(-663.717 -246.06)" fill="#fff"/>
      <path id="Path_31" data-name="Path 31" d="M780.14,253.709V246.26h1.608l3.228,4.836V246.26h1.664v7.449h-1.53l-3.306-4.924v4.924Z" transform="translate(-716.275 -246.06)" fill="#fff"/>
      <path id="Path_32" data-name="Path 32" d="M836.49,253.709l2.781-7.449h1.865l2.725,7.449h-1.842L841.45,252h-2.625l-.569,1.709Zm2.726-3.015h1.831l-.9-2.815Z" transform="translate(-764.004 -246.06)" fill="#fff"/>
      <path id="Path_33" data-name="Path 33" d="M898.6,249.923V248.56h2.87v3.228a4.384,4.384,0,0,1-1.357.771,5.2,5.2,0,0,1-1.77.28,4.144,4.144,0,0,1-2.088-.5,3.363,3.363,0,0,1-1.334-1.374,4.541,4.541,0,0,1-.183-3.569,3.789,3.789,0,0,1,.792-1.251,3.577,3.577,0,0,1,1.222-.832,4,4,0,0,1,1.557-.3,4.046,4.046,0,0,1,1.787.375,3.352,3.352,0,0,1,1.262,1.045l-1.14,1.083a3.121,3.121,0,0,0-.782-.693,1.986,1.986,0,0,0-1.062-.268,2.058,2.058,0,0,0-1.167.324,2.085,2.085,0,0,0-.742.866,2.766,2.766,0,0,0-.257,1.2,2.512,2.512,0,0,0,.3,1.245,2.126,2.126,0,0,0,.8.821,2.228,2.228,0,0,0,1.14.291,2.957,2.957,0,0,0,.815-.106,1.857,1.857,0,0,0,.659-.341v-.938H898.6Z" transform="translate(-813.106 -245.009)" fill="#fff"/>
      <path id="Path_34" data-name="Path 34" d="M957.75,253.709V246.26h5.093v1.475h-3.407v1.452h2.647v1.429h-2.647v1.608h3.652v1.485Z" transform="translate(-866.714 -246.06)" fill="#fff"/>
      <path id="Path_35" data-name="Path 35" d="M1007.9,253.709l.346-7.449h1.6l1.943,3.5,1.9-3.5h1.608l.346,7.449h-1.686l-.213-4.869-1.54,2.905h-.87l-1.631-2.87-.19,4.836H1007.9Z" transform="translate(-909.192 -246.06)" fill="#fff"/>
      <path id="Path_36" data-name="Path 36" d="M1075.79,253.709V246.26h5.093v1.475h-3.407v1.452h2.647v1.429h-2.647v1.608h3.652v1.485Z" transform="translate(-966.697 -246.06)" fill="#fff"/>
      <path id="Path_37" data-name="Path 37" d="M1126.74,253.709V246.26h1.608l3.228,4.836V246.26h1.664v7.449h-1.53l-3.306-4.924v4.924Z" transform="translate(-1009.852 -246.06)" fill="#fff"/>
      <path id="Path_38" data-name="Path 38" d="M1186.522,253.709v-5.963h-2.412V246.26h6.511v1.485h-2.4v5.963Z" transform="translate(-1058.446 -246.06)" fill="#fff"/>
    </g>
    <g id="Group_20" data-name="Group 20" transform="translate(11.47 4.803)">
      <path id="Path_10-2" data-name="Path 10" d="M192.617,95.359H171.5c.2-.2.428-.442.607-.621,2.884-2.888,5.78-5.763,8.657-8.656a2,2,0,0,1,2-.39,4.913,4.913,0,0,1,2.669,1.741C187.792,90.036,190.151,92.641,192.617,95.359Z" transform="translate(-147.019 -73.546)" fill="#03964a"/>
      <path id="Path_11-2" data-name="Path 11" d="M100.938,7.34V28.371c-.124-.119-.356-.353-.486-.479Q96.5,23.955,92.573,20a3.516,3.516,0,0,1-.434-4.106,5.235,5.235,0,0,1,1.037-1.334q3.749-3.5,7.507-7C100.735,7.519,100.8,7.456,100.938,7.34Z" transform="translate(-79.408 -7.259)" fill="#03964a"/>
      <path id="Path_12-2" data-name="Path 12" d="M166.75,6.81c2.669,2.486,5.24,4.851,7.773,7.256a4,4,0,0,1,1.371,4.111,2.46,2.46,0,0,1-.6,1.16q-4.133,4.114-8.262,8.23c-.063.061-.136.112-.277.225Z" transform="translate(-142.996 -6.81)" fill="#03964a"/>
      <path id="Path_13-2" data-name="Path 13" d="M171.8,164.02h20.759c-.21.254-.353.444-.512.617q-3.068,3.341-6.142,6.679a6.839,6.839,0,0,1-2.064,1.646,3.128,3.128,0,0,1-3.769-.65C177.344,169.579,174.619,166.847,171.8,164.02Z" transform="translate(-147.273 -139.97)" fill="#03964a"/>
      <path id="Path_14-2" data-name="Path 14" d="M32.327,96.3l-20.857,0c2.536-2.806,4.953-5.489,7.383-8.163A4.187,4.187,0,0,1,20.661,86.9a2.427,2.427,0,0,1,2.8.617c2.639,2.747,5.374,5.4,8.079,8.086" transform="translate(-11.47 -74.483)" fill="#03964a"/>
      <path id="Path_15-2" data-name="Path 15" d="M101.395,189.518c-2.107-1.966-4.117-3.84-6.125-5.717a20.854,20.854,0,0,1-1.915-1.834,4.465,4.465,0,0,1-1.04-2A2.52,2.52,0,0,1,93,177.476c2.588-2.521,5.128-5.093,7.687-7.643.2-.2.419-.387.71-.653Z" transform="translate(-79.885 -144.341)" fill="#03964a"/>
      <path id="Path_16-2" data-name="Path 16" d="M13.33,163.86H33.762c-.2.217-.321.358-.447.483q-3.8,3.823-7.6,7.637a3.1,3.1,0,0,1-3.716.659,6.17,6.17,0,0,1-1.934-1.455q-3.261-3.515-6.5-7.051C13.521,164.086,13.454,164.008,13.33,163.86Z" transform="translate(-13.045 -139.835)" fill="#03964a"/>
      <path id="Path_17-2" data-name="Path 17" d="M166.6,189.517V169.01c1.475,1.45,2.871,2.812,4.256,4.189s2.729,2.838,4.178,4.164a2.562,2.562,0,0,1,.659,2.812,3.58,3.58,0,0,1-.952,1.64C172.158,184.439,169.377,186.852,166.6,189.517Z" transform="translate(-142.868 -144.197)" fill="#03964a"/>
      <path id="Path_18-2" data-name="Path 18" d="M146.19,145.33a1.965,1.965,0,0,1,2.082-1.99,2,2,0,0,1,1.975,2.036,2.031,2.031,0,1,1-4.057-.046Z" transform="translate(-125.581 -122.454)" fill="#ea3739"/>
    </g>
  </g>
</svg>
